<?xml version="1.0" encoding="utf-8"?>
<!-- Generator: Adobe Illustrator 25.4.1, SVG Export Plug-In . SVG Version: 6.00 Build 0)  -->
<svg version="1.0" id="Layer_1" xmlns="http://www.w3.org/2000/svg" xmlns:xlink="http://www.w3.org/1999/xlink" x="0px" y="0px"
	 viewBox="0 0 311.81 113.39" style="enable-background:new 0 0 311.81 113.39;" xml:space="preserve">
<style type="text/css">
	.st0{fill:#FFFFFF;}
	.st1{fill-rule:evenodd;clip-rule:evenodd;fill:#50B848;}
	.st2{fill:none;}
	.st3{fill-rule:evenodd;clip-rule:evenodd;fill:#FFFFFF;}
	.st4{fill:#53B949;}
	.st5{fill-rule:evenodd;clip-rule:evenodd;fill:#0095DA;}
</style>
<g>
	<path d="M208.82,60.12l-8.26,20.29h2.72l2.18-5.97h7.74l2.09,5.97h3.25l-7.56-20.29H208.82z M206.24,72.4
		c1.1-2.81,2.18-5.62,3.22-9.27h0.06c1.02,3.65,2,6.46,3.01,9.27H206.24z"/>
	<polygon points="201.12,60.12 185.29,60.12 185.29,62.14 191.78,62.14 191.78,80.4 194.6,80.4 194.6,62.14 201.12,62.14 	"/>
	<path d="M254.53,59.77c-5.85,0-10.14,4.46-10.14,10.14c0,6.05,3.88,10.84,10.14,10.84c6.26,0,10.14-4.78,10.14-10.84
		C264.67,64.23,260.38,59.77,254.53,59.77z M254.53,78.72c-5.25,0-7.04-4.84-7.04-8.81c0-3.8,2.03-8.11,7.04-8.11
		c5.01,0,7.04,4.32,7.04,8.11C261.57,73.88,259.77,78.72,254.53,78.72z"/>
	<path d="M119.61,53.64c2.65,0,5.09-0.94,6.47-1.88l-1.12-1.71c-1.21,0.82-2.97,1.53-5.21,1.53c-4.5,0-8.09-3.5-8.09-8.71
		c0-4.82,3-8.47,8.09-8.47c2.2,0,4.41,1,5.38,1.8l1.18-1.77c-1.35-1.06-3.41-2.09-6.35-2.09c-7.38,0-11.44,5.41-11.44,10.59
		C108.52,48.61,112.25,53.64,119.61,53.64z"/>
	<path d="M190.89,44.76h3.03l4.77,8.89l2.88-0.88l-5.12-8.77c1.97-1.27,3.44-2.97,3.44-6c0-3.56-2.62-5.3-5.97-5.3h-5.88v20.6h2.85
		V44.76z M190.89,34.75h2.44c1.91,0,3.5,0.97,3.5,3.5c0,1.74-0.68,4.44-4.33,4.44h-1.62V34.75z"/>
	<path d="M154.57,60.12h-5.1V80.4h2.81V62.14h1.94c3.01,0,4.26,1.62,4.26,3.86c0,3.01-1.71,4.46-4.43,4.61l-0.93,0.03v1.85h0.9
		c4.55,0,7.48-3.1,7.48-6.52C161.5,62.03,158.86,60.12,154.57,60.12z"/>
	<polygon points="135.91,70.72 142.95,70.72 142.95,68.69 135.91,68.69 135.91,62.14 143.1,62.14 143.1,60.12 133.1,60.12 
		133.1,80.4 144.34,80.4 144.34,78.37 135.91,78.37 	"/>
	<path d="M116.41,60.12h-6.49V80.4h6.03c7.18,0,11.48-4.03,11.48-10.75C127.42,64.78,124.58,60.12,116.41,60.12z M115.86,78.37
		h-3.13V62.14h3.74c5.33,0,7.85,2.93,7.85,7.45C124.32,75.53,121.57,78.37,115.86,78.37z"/>
	<path d="M179.21,72.9c0,2.9-1.27,5.91-5.07,5.91c-3.62,0-5.19-2.2-5.19-6.4V60.12h-2.81v12.4c0,5.22,2.29,8.23,8,8.23
		c4.9,0,7.71-3.25,7.71-7.79V60.12h-2.64V72.9z"/>
	<path d="M14.17,16.6v80.18h283.46V16.6H14.17z M16.97,48.32h4.31v1.52l-4.31,0V48.32z M16.97,51.32h4.31v24.32h-4.31V51.32z
		 M91.34,94H16.99v-7.58h-0.02v-5.69h74.3v-1.89l0.07,0V94z M91.34,60.96l-0.07,0v0.88H38.24c4.98,4.98,15.37,11.98,24.57,13.79
		H29.66v-49.8h-8.37v20.97h-4.31V23.63h0.02v-4.2h74.35V60.96z M294.86,94H94.12V19.42h200.73V94z"/>
	<path d="M239.98,69.65c0-4.87-2.84-9.53-11.01-9.53h-6.49V80.4h6.03C235.69,80.4,239.98,76.37,239.98,69.65z M225.28,78.37V62.14
		h3.74c5.33,0,7.85,2.93,7.85,7.45c0,5.94-2.75,8.78-8.46,8.78H225.28z"/>
	<path d="M148.38,36.52h0.06c0.79,2.71,5.06,11.5,7.62,16.77h1.15c2.76-5.27,7.44-14.36,8.27-16.77h0.06v16.77h2.85v-20.6h-2.68
		c-2.88,5.47-5.8,10.98-8.71,16.77c-2.62-5.8-5.27-11.3-7.91-16.77h-3.06v20.6h2.35V36.52z"/>
	<path d="M206.77,47.23h7.86l2.12,6.06h3.3l-7.68-20.6h-2.18l-8.39,20.6h2.77L206.77,47.23z M210.84,35.75h0.06
		c1.03,3.71,2.03,6.56,3.06,9.41h-6.38C208.69,42.31,209.78,39.46,210.84,35.75z"/>
	<path d="M173.47,47.23h7.86l2.12,6.06h3.3l-7.68-20.6h-2.18l-8.39,20.6h2.76L173.47,47.23z M177.53,35.75h0.06
		c1.03,3.71,2.03,6.56,3.06,9.41h-6.38C175.39,42.31,176.47,39.46,177.53,35.75z"/>
	<polygon points="135.64,28.31 138.55,31.16 140.29,31.16 136.61,26.69 134.7,26.69 131.02,31.16 132.73,31.16 	"/>
	<path d="M275.62,68.95c-2.61-1.88-3.85-2.96-3.85-4.4c0-1.57,1.13-2.75,3.16-2.75c1.22,0,2.52,0.72,3.51,1.45l1.33-1.45
		c-1.13-1.27-2.9-2.03-5.01-2.03c-3.16,0-5.8,2.06-5.8,4.78c0,2.87,1.88,4.11,3.56,5.42c1.65,1.22,4.69,2.87,4.69,5.42
		c0,2.26-1.54,3.33-3.53,3.33c-1.91,0-3.22-0.93-4.41-1.77l-1.24,1.68c1.45,1.42,3.77,2.12,5.71,2.12c3.24,0,6.29-2.09,6.29-5.3
		C280.03,72.84,278.41,70.98,275.62,68.95z"/>
	<path d="M131.52,47.23h7.86l2.12,6.06h3.3l-7.68-20.6h-2.18l-8.39,20.6h2.77L131.52,47.23z M135.58,35.75h0.06
		c1.03,3.71,2.03,6.56,3.06,9.41h-6.38C133.43,42.31,134.52,39.46,135.58,35.75z"/>
	<path d="M273.56,51.58c-1.94,0-3.27-0.94-4.47-1.79l-1.27,1.71c1.47,1.44,3.82,2.15,5.8,2.15c3.3,0,6.39-2.12,6.39-5.38
		c0-2.65-1.65-4.53-4.47-6.59c-2.65-1.91-3.91-3-3.91-4.47c0-1.59,1.15-2.8,3.21-2.8c1.23,0,2.56,0.74,3.56,1.47l1.35-1.47
		c-1.15-1.29-2.94-2.06-5.09-2.06c-3.21,0-5.89,2.09-5.89,4.85c0,2.91,1.91,4.18,3.62,5.5c1.68,1.24,4.77,2.91,4.77,5.5
		C277.15,50.49,275.59,51.58,273.56,51.58z"/>
	<path d="M257.14,53.64c6.35,0,10.3-4.85,10.3-11c0-5.77-4.35-10.3-10.3-10.3c-5.94,0-10.3,4.53-10.3,10.3
		C246.84,48.79,250.79,53.64,257.14,53.64z M257.14,34.4c5.09,0,7.15,4.39,7.15,8.24c0,4.03-1.82,8.94-7.15,8.94
		c-5.32,0-7.15-4.91-7.15-8.94C249.99,38.78,252.05,34.4,257.14,34.4z"/>
	<path d="M245.91,42.37c0-4.94-2.88-9.68-11.18-9.68h-6.59v20.6h6.12C241.55,53.29,245.91,49.2,245.91,42.37z M230.99,51.23V34.75
		h3.79c5.41,0,7.97,2.97,7.97,7.56c0,6.03-2.8,8.92-8.59,8.92H230.99z"/>
</g>
</svg>
